# Blender v3.1.2 OBJ File: ''
# www.blender.org
mtllib player_hp3.mtl
o 立方体
v -1.000000 -1.000000 1.000000
v -1.000000 1.000000 1.000000
v -1.000000 -1.000000 -1.000000
v -1.000000 1.000000 -1.000000
v 1.000000 -1.000000 1.000000
v 1.000000 1.000000 1.000000
v 1.000000 -1.000000 -1.000000
v 1.000000 1.000000 -1.000000
v 0.011067 -1.000000 -1.000000
v 0.011067 1.000000 -1.000000
v 0.011067 -1.000000 1.000000
v 0.011067 1.000000 1.000000
v -1.000000 0.000000 1.000000
v -1.000000 0.000000 -1.000000
v 1.000000 0.000000 -1.000000
v 1.000000 0.000000 1.000000
v 0.011067 0.000000 1.000000
v 0.011067 0.000000 -1.000000
vt 0.625000 0.000000
vt 0.500000 0.250000
vt 0.500000 0.000000
vt 0.625000 0.376383
vt 0.500000 0.500000
vt 0.500000 0.376383
vt 0.625000 0.500000
vt 0.500000 0.750000
vt 0.625000 0.873617
vt 0.500000 1.000000
vt 0.500000 0.873617
vt 0.375000 0.500000
vt 0.251383 0.750000
vt 0.251383 0.500000
vt 0.875000 0.500000
vt 0.748617 0.750000
vt 0.748617 0.500000
vt 0.625000 0.750000
vt 0.125000 0.750000
vt 0.125000 0.500000
vt 0.625000 0.250000
vt 0.375000 0.376383
vt 0.375000 0.250000
vt 0.375000 0.873617
vt 0.375000 0.750000
vt 0.375000 1.000000
vt 0.375000 0.000000
vt 0.625000 1.000000
vt 0.875000 0.750000
vn -1.0000 0.0000 0.0000
vn 0.0000 0.0000 -1.0000
vn 1.0000 0.0000 0.0000
vn 0.0000 0.0000 1.0000
vn 0.0000 -1.0000 0.0000
vn 0.0000 1.0000 0.0000
usemtl マテリアル
s off
f 2/1/1 14/2/1 13/3/1
f 10/4/2 15/5/2 18/6/2
f 8/7/3 16/8/3 15/5/3
f 12/9/4 13/10/4 17/11/4
f 7/12/5 11/13/5 9/14/5
f 4/15/6 12/16/6 10/17/6
f 10/17/6 6/18/6 8/7/6
f 9/14/5 1/19/5 3/20/5
f 6/18/4 17/11/4 16/8/4
f 4/21/2 18/6/2 14/2/2
f 14/2/2 9/22/2 3/23/2
f 16/8/4 11/24/4 5/25/4
f 17/11/4 1/26/4 11/24/4
f 15/5/3 5/25/3 7/12/3
f 18/6/2 7/12/2 9/22/2
f 13/3/1 3/23/1 1/27/1
f 2/1/1 4/21/1 14/2/1
f 10/4/2 8/7/2 15/5/2
f 8/7/3 6/18/3 16/8/3
f 12/9/4 2/28/4 13/10/4
f 7/12/5 5/25/5 11/13/5
f 4/15/6 2/29/6 12/16/6
f 10/17/6 12/16/6 6/18/6
f 9/14/5 11/13/5 1/19/5
f 6/18/4 12/9/4 17/11/4
f 4/21/2 10/4/2 18/6/2
f 14/2/2 18/6/2 9/22/2
f 16/8/4 17/11/4 11/24/4
f 17/11/4 13/10/4 1/26/4
f 15/5/3 16/8/3 5/25/3
f 18/6/2 15/5/2 7/12/2
f 13/3/1 14/2/1 3/23/1
